<svg xmlns="http://www.w3.org/2000/svg" viewBox="0 0 12.64 12.45"><defs><style>.cls-1{fill:#657786;}</style></defs><g id="レイヤー_2" data-name="レイヤー 2"><g id="Tweet_Treatments" data-name="Tweet Treatments"><path class="cls-1" d="M9.82,3.3,6.66.14A.46.46,0,0,0,6,.14L2.83,3.3A.47.47,0,0,0,3.5,4L5.85,1.62V8.06a.47.47,0,0,0,.47.47.48.48,0,0,0,.48-.47V1.62L9.15,4a.47.47,0,0,0,.33.14A.51.51,0,0,0,9.82,4,.48.48,0,0,0,9.82,3.3Z"/><path class="cls-1" d="M11.19,12.45H1.45A1.45,1.45,0,0,1,0,11V7.43A.48.48,0,0,1,.47,7,.48.48,0,0,1,1,7.43V11a.5.5,0,0,0,.5.5h9.74a.5.5,0,0,0,.5-.5V7.43A.49.49,0,0,1,12.17,7a.48.48,0,0,1,.47.48V11A1.45,1.45,0,0,1,11.19,12.45Z"/></g></g></svg>